<svg xmlns="http://www.w3.org/2000/svg" width="21" height="24" viewBox="0 0 21 24">
    <path fill="#3C4859" fill-rule="evenodd" d="M10.45 0c-1.1 0-1.863.41-2.427.839-.564.43-.957.837-1.628 1.105a.63.63 0 0 0-.415.582H0V3.79h20.842V2.526h-5.98a.63.63 0 0 0-.415-.582c-.676-.269-1.09-.68-1.648-1.105C12.242.413 11.5 0 10.451 0zm0 1.263c.755 0 1.104.219 1.58.582.253.193.528.44.868.681H7.925c.34-.243.615-.488.868-.68.472-.36.834-.583 1.658-.583zM1.896 4.421v16.747c0 1.89.942 2.832 2.852 2.832h11.368c1.883 0 2.832-.942 2.832-2.832V4.42H1.895zm3.473 4.105h1.264v11.369H5.368V8.526zm4.422 0h1.263v11.369H9.79V8.526zm4.42 0h1.264v11.369H14.21V8.526z"/>
</svg>
