<svg xmlns="http://www.w3.org/2000/svg" xmlns:xlink="http://www.w3.org/1999/xlink" width="26" height="23" viewBox="0 0 26 23">
    <defs>
        <path id="a" d="M0 .348h26V16.74H0z"/>
    </defs>
    <g fill="none" fill-rule="evenodd">
        <g transform="translate(0 -.218)">
            <mask id="b" fill="#fff">
                <use xlink:href="#a"/>
            </mask>
            <path fill="#3C4859" d="M20.18 4.68C18.778 2.037 16 .348 13 .348a8.134 8.134 0 0 0-8.053 7.04C2.274 7.183-.002 9.335 0 11.994c0 3.7 3.194 4.72 4.89 4.744h6.414v-5.997c0-.934.76-1.695 1.696-1.695.934 0 1.695.76 1.695 1.695v5.997h5.917l.043-.006c.054-.01 5.345-.892 5.345-6.09a5.97 5.97 0 0 0-5.82-5.963" mask="url(#b)"/>
        </g>
        <path fill="#3C4859" d="M16.79 18.039l-.001-.003a.575.575 0 0 0-.795 0s-.002 0-.002.003l-1.214 1.213-1.213 1.212v-9.938a.565.565 0 1 0-1.13 0v9.938l-1.215-1.212-1.212-1.213a.565.565 0 1 0-.799.799l.753.753 2.636 2.636c.215.216.582.22.8.002l2.638-2.637.755-.754a.566.566 0 0 0 0-.8"/>
    </g>
</svg>
