<svg xmlns="http://www.w3.org/2000/svg" xmlns:xlink="http://www.w3.org/1999/xlink" width="25" height="25" viewBox="0 0 25 25">
    <defs>
        <path id="a" d="M0 12.5V0h25v25H0z"/>
    </defs>
    <g fill="none" fill-rule="evenodd">
        <mask id="b" fill="#fff">
            <use xlink:href="#a"/>
        </mask>
        <path fill="#757575" d="M9.375 2.083c4.02 0 7.292 3.271 7.292 7.292 0 4.02-3.272 7.292-7.292 7.292s-7.292-3.272-7.292-7.292 3.271-7.292 7.292-7.292m0 16.667c2.22 0 4.26-.78 5.868-2.075l7.977 8.019a1.041 1.041 0 1 0 1.477-1.47l-7.988-8.028a9.316 9.316 0 0 0 2.041-5.821C18.75 4.205 14.545 0 9.375 0S0 4.205 0 9.375c0 5.169 4.205 9.375 9.375 9.375" mask="url(#b)"/>
    </g>
</svg>
