<svg xmlns="http://www.w3.org/2000/svg" xmlns:xlink="http://www.w3.org/1999/xlink" xmlns:a="http://ns.adobe.com/AdobeSVGViewerExtensions/3.0/" version="1.1" x="0px" y="0px" viewBox="0 0 32 32" overflow="visible" enable-background="new 0 0 32 32" xml:space="preserve"><path fill="#333" d="M30.83,13.67l-3.17-0.529c-0.23-0.942-0.566-1.842-1.004-2.682l2.029-2.516  c0.432-0.532,0.412-1.297-0.043-1.81l-1.26-1.419c-0.457-0.513-1.215-0.621-1.793-0.256l-2.711,1.704  c-1.193-0.833-2.543-1.448-4-1.805L18.348,1.17C18.236,0.495,17.652,0,16.967,0h-1.9c-0.684,0-1.27,0.495-1.379,1.17l-0.533,3.188  c-1.205,0.295-2.334,0.771-3.365,1.398l-2.578-1.84C6.656,3.519,5.893,3.581,5.408,4.065L4.066,5.408  C3.582,5.893,3.52,6.656,3.918,7.212l1.844,2.583c-0.621,1.023-1.092,2.146-1.387,3.34L1.17,13.67C0.496,13.781,0,14.365,0,15.051  v1.898c0,0.686,0.496,1.27,1.17,1.381l3.205,0.535c0.242,0.982,0.594,1.921,1.061,2.791l-2.02,2.502  c-0.43,0.531-0.412,1.297,0.043,1.81l1.26,1.419c0.457,0.513,1.215,0.62,1.793,0.256l2.75-1.728c1.164,0.796,2.48,1.381,3.893,1.727  l0.533,3.188c0.109,0.675,0.695,1.17,1.379,1.17h1.9c0.686,0,1.27-0.495,1.381-1.17l0.531-3.188  c1.189-0.291,2.305-0.758,3.326-1.374l2.686,1.917c0.555,0.399,1.318,0.336,1.803-0.149l1.342-1.342  c0.484-0.484,0.549-1.247,0.148-1.804l-1.912-2.68c0.623-1.027,1.096-2.152,1.389-3.351l3.17-0.529  c0.676-0.111,1.17-0.695,1.17-1.381v-1.898C32,14.365,31.506,13.781,30.83,13.67z M16.051,22c-3.313,0-6-2.687-6-6s2.687-6,6-6  s6,2.687,6,6S19.364,22,16.051,22z"></path></svg>
