<svg xmlns="http://www.w3.org/2000/svg" width="25" height="25" viewBox="0 0 24 24">
    <g fill="#3C4859" fill-rule="evenodd">
        <path d="M5.478.285C4.184.275 2.846.788 1.816 1.817c-1.937 1.937-2.044 4.97-.275 6.739l3.08 3.08c1.243 1.242 3.101 1.56 4.774.969-1.918-1.922-3.819-3.818-5.738-5.737-.482-.482-.66-1.077-.602-1.63.058-.554.335-1.066.726-1.458.392-.392.904-.67 1.458-.726.554-.058 1.148.121 1.63.602 1.918 1.924 3.817 3.818 5.736 5.737.59-1.671.27-3.531-.969-4.774L8.554 1.54C7.724.71 6.617.292 5.476.284h.002z"/>
        <path d="M8.225 6.41a1.533 1.533 0 0 0-.274.031 1.976 1.976 0 0 0-1.007.58c-.278.292-.47.66-.519 1.027A1.349 1.349 0 0 0 6.74 9.13c.038.045.077.089.12.132l7.898 7.894c.372.372.768.483 1.166.441.4-.041.803-.252 1.113-.562.31-.31.521-.713.562-1.113.042-.4-.068-.796-.44-1.167L9.267 6.857a1.763 1.763 0 0 0-.228-.19l-.001-.002a1.34 1.34 0 0 0-.81-.256h-.002z"/>
        <path d="M16.244 11.107a4.971 4.971 0 0 0-1.637.288c1.917 1.92 3.82 3.818 5.735 5.737.483.482.662 1.077.605 1.63-.058.554-.334 1.066-.726 1.458-.392.392-.904.67-1.458.728-.553.058-1.148-.122-1.63-.603-1.917-1.92-3.816-3.818-5.736-5.738-.591 1.67-.273 3.532.968 4.774l3.08 3.08c1.77 1.769 4.802 1.66 6.739-.277 1.937-1.937 2.043-4.97.274-6.739l-3.08-3.08c-.844-.844-1.972-1.261-3.134-1.257z"/>
    </g>
</svg>
